<?xml version="1.0" standalone="no"?>
<!DOCTYPE svg PUBLIC "-//W3C//DTD SVG 20010904//EN"
 "http://www.w3.org/TR/2001/REC-SVG-20010904/DTD/svg10.dtd">
<svg version="1.0" xmlns="http://www.w3.org/2000/svg"
 width="1024.000000pt" height="1024.000000pt" viewBox="0 0 1024.000000 1024.000000"
 preserveAspectRatio="xMidYMid meet">

<g transform="translate(0.000000,1024.000000) scale(0.100000,-0.100000)"
fill="#000000" stroke="none">
<path d="M0 5120 l0 -5120 5120 0 5120 0 0 5120 0 5120 -5120 0 -5120 0 0
-5120z m5820 3376 c0 -3 -4 -8 -10 -11 -5 -3 -10 -1 -10 4 0 6 5 11 10 11 6 0
10 -2 10 -4z m74 -17 c-5 -8 4 -10 28 -7 25 2 34 0 31 -8 -2 -7 -14 -10 -26
-7 -19 4 -20 3 -5 -7 14 -8 23 -7 42 5 14 9 31 13 37 9 7 -4 9 -3 5 4 -3 6 -2
13 4 17 5 3 10 1 10 -5 0 -6 5 -8 10 -5 6 3 10 -1 10 -9 0 -18 16 -22 22 -5 3
8 10 6 20 -5 17 -16 43 -23 34 -8 -10 16 59 -1 80 -19 11 -11 24 -16 28 -12 4
5 6 2 4 -6 -2 -8 7 -15 22 -17 13 -3 29 -10 35 -16 7 -8 5 -9 -8 -5 -11 4 -16
3 -12 -3 3 -6 13 -10 21 -10 8 0 14 -8 14 -17 0 -15 2 -16 10 -3 6 9 10 10 10
3 0 -7 10 -17 22 -24 18 -10 20 -9 14 6 -5 15 -4 16 9 5 19 -16 2 -32 -24 -23
-9 4 -5 -3 8 -15 13 -12 20 -22 15 -23 -5 0 1 -4 14 -10 13 -5 21 -13 18 -18
-3 -5 0 -8 7 -7 6 0 14 -3 15 -9 2 -5 9 -16 15 -24 9 -12 9 -13 0 -7 -7 4 -13
3 -13 -1 0 -5 10 -14 23 -22 20 -13 21 -13 9 2 -8 9 -9 18 -3 21 5 4 12 -2 15
-11 3 -10 17 -30 31 -45 16 -17 21 -29 14 -34 -8 -4 -7 -9 2 -14 7 -5 14 -18
16 -31 2 -12 9 -30 16 -38 8 -12 6 -11 -9 2 -11 9 -26 17 -34 17 -7 0 -1 -9
14 -21 14 -11 24 -25 21 -30 -4 -5 7 -21 22 -35 l28 -27 -32 17 c-43 22 -50
20 -27 -5 19 -22 19 -22 -6 -14 -25 8 -25 8 -6 -14 24 -27 7 -27 -27 -1 l-26
20 -7 -22 c-8 -26 -7 -33 4 -33 19 -2 52 -17 52 -25 0 -5 3 -15 6 -23 4 -12 0
-14 -16 -10 -12 3 -19 11 -16 18 5 13 -22 30 -32 20 -3 -3 0 -5 6 -5 7 0 12
-6 12 -13 0 -8 9 -22 20 -32 26 -24 25 -30 -5 -33 -14 -1 -25 3 -25 8 0 5 7 6
17 3 27 -11 5 15 -28 32 -16 9 -27 20 -24 25 4 6 1 10 -4 10 -19 0 -12 -18 17
-40 19 -16 22 -20 7 -15 -17 5 -17 3 4 -19 31 -33 22 -43 -15 -19 -16 10 -25
13 -21 6 5 -7 0 -16 -12 -22 -27 -15 -30 -14 -41 12 l-9 22 0 -22 c-1 -13 4
-23 9 -23 6 0 22 -11 35 -24 14 -14 33 -30 42 -36 14 -9 10 -10 -22 -6 -27 4
-34 3 -20 -3 11 -5 29 -19 40 -32 l20 -23 -28 18 c-36 22 -44 15 -22 -18 10
-14 14 -26 10 -26 -5 0 0 -9 9 -19 17 -19 17 -19 -3 -14 -20 5 -25 14 -22 41
1 8 -5 7 -18 -5 -12 -10 -21 -24 -20 -33 0 -11 2 -11 8 3 6 16 9 16 30 -7 26
-27 21 -46 -12 -46 -17 0 -19 2 -7 9 8 6 19 7 25 3 5 -3 4 2 -3 10 -15 18 -41
14 -38 -5 4 -28 17 -37 37 -27 25 14 44 3 29 -15 -7 -8 -9 -19 -5 -25 3 -5 -1
-10 -9 -10 -19 0 -21 11 -4 28 8 8 9 12 1 12 -6 0 -13 -5 -15 -12 -3 -8 -12
-6 -29 6 -21 13 -26 13 -26 2 0 -8 5 -12 12 -10 13 5 45 -27 49 -48 1 -7 10
-29 20 -48 10 -20 11 -28 3 -18 -8 10 -17 15 -21 11 -4 -4 -4 1 0 12 7 18 6
18 -9 6 -13 -10 -14 -18 -6 -33 7 -14 7 -23 -2 -34 -15 -19 -5 -18 15 1 13 14
15 13 13 -4 0 -11 -6 -19 -11 -18 -6 1 -10 -13 -11 -31 0 -24 4 -31 15 -27 13
4 13 4 0 -7 -18 -15 -19 -70 -2 -76 7 -2 12 -13 11 -25 0 -22 0 -22 -9 1 -5
12 -14 22 -21 22 -6 0 -3 -13 9 -32 10 -18 25 -32 31 -30 7 1 9 -2 5 -9 -5 -9
-15 -3 -31 17 -35 43 -58 68 -79 82 -16 11 -16 11 6 2 l25 -11 -24 20 c-13 12
-29 21 -35 21 -7 0 -23 11 -36 25 -41 44 -113 85 -138 78 -21 -5 -21 -6 -5
-19 10 -7 13 -14 7 -14 -5 0 -19 7 -30 15 -25 19 -40 19 -23 -1 11 -13 9 -14
-17 -8 -16 4 -38 14 -49 24 -11 10 -33 20 -50 23 l-30 6 33 -14 c17 -8 32 -16
32 -18 0 -7 -61 2 -73 11 -8 7 -17 9 -20 5 -4 -3 -7 2 -8 13 0 10 -3 13 -6 7
-7 -18 -50 -16 -57 2 -3 8 -11 15 -17 15 -8 0 -8 -4 1 -15 11 -13 10 -14 -4
-9 -9 3 -16 11 -16 18 -1 12 -50 52 -50 40 0 -4 7 -16 17 -26 21 -23 10 -24
-13 -1 -13 13 -18 15 -22 5 -2 -8 -8 -10 -15 -3 -7 5 -31 14 -54 20 -40 11
-103 61 -103 83 0 6 18 -7 39 -28 22 -21 59 -44 83 -51 53 -16 53 -16 39 0 -6
8 -8 17 -4 20 3 4 0 7 -7 7 -8 0 -25 10 -39 22 -21 18 -20 16 4 -11 29 -32 29
-33 5 -20 -14 7 -30 12 -36 11 -5 -1 -25 13 -43 32 -19 19 -40 32 -47 29 -9
-3 -13 0 -11 8 2 8 2 11 0 7 -10 -17 -23 -6 -23 18 0 15 -4 23 -10 19 -6 -4
-8 -15 -5 -26 4 -10 2 -19 -3 -19 -14 0 -22 52 -10 73 6 12 6 23 -2 31 -12 15
6 26 41 26 10 0 19 4 19 9 0 10 -51 8 -69 -3 -7 -5 -20 -1 -31 9 -13 12 -27
15 -48 10 -18 -4 -44 0 -66 9 -35 15 -52 32 -19 19 11 -4 14 -3 9 5 -4 7 -15
12 -24 12 -12 0 -13 3 -4 12 15 15 15 28 1 28 -5 0 -7 -4 -4 -10 8 -13 -1 -13
-26 0 -11 6 -19 7 -19 1 0 -5 7 -12 16 -15 17 -6 10 -26 -9 -25 -9 0 -8 2 1 6
8 3 5 11 -10 24 -13 10 -17 18 -10 19 6 0 12 7 12 16 0 14 -2 15 -17 3 -15
-13 -15 -12 -3 8 12 18 17 20 29 10 12 -10 14 -9 8 6 -7 20 3 22 22 5 11 -10
12 -10 7 -1 -4 7 -16 18 -28 24 -15 8 -19 8 -14 0 4 -6 2 -11 -3 -11 -6 0 -11
5 -11 11 0 6 -6 9 -12 6 -7 -2 -12 -13 -10 -23 2 -18 2 -18 -8 -1 -15 23 -4
37 28 37 20 0 23 3 13 9 -8 5 -21 7 -30 4 -14 -4 -14 -3 -1 5 8 6 17 9 21 6 4
-2 12 3 19 11 10 12 8 16 -15 25 -33 12 -35 12 -35 0 0 -5 3 -9 8 -9 4 1 16 1
26 0 27 -1 11 -14 -19 -16 -21 0 -25 4 -25 27 0 25 2 27 25 18 14 -5 51 -11
84 -12 48 -2 58 -5 54 -18 -4 -12 -3 -12 5 -1 7 10 32 12 113 7 138 -9 176
-13 227 -24 23 -6 42 -6 42 -2 0 5 -13 11 -28 15 -15 3 -33 15 -41 26 -7 12
-8 18 -2 14 6 -3 11 -2 11 4 0 5 -8 15 -17 20 -14 8 -12 9 12 6 17 -2 41 -7
54 -11 16 -5 22 -4 18 4 -4 5 -3 12 3 14 5 1 -11 4 -38 6 -26 1 -56 4 -67 6
-11 3 -24 5 -30 5 -5 1 -4 5 4 10 8 6 24 6 38 0 16 -6 23 -5 23 3 0 9 3 9 12
0 7 -7 17 -12 23 -12 5 0 1 7 -9 15 -13 10 -16 19 -10 28 5 7 2 6 -6 -3 -12
-13 -20 -14 -33 -6 -12 8 -20 8 -25 0 -8 -11 -51 -12 -69 -1 -6 4 -9 16 -6 27
3 11 0 20 -6 20 -5 0 -8 -7 -5 -14 5 -13 2 -13 -20 -3 -14 7 -24 17 -22 23 5
14 -27 42 -58 50 -18 4 -27 1 -36 -16 -10 -18 -14 -19 -28 -8 -13 11 -15 11
-10 -3 3 -9 2 -22 -3 -30 -7 -11 -9 -11 -9 2 0 9 -7 19 -15 23 -8 3 -12 12 -9
20 3 8 1 17 -4 20 -5 3 -8 -6 -6 -21 1 -14 8 -30 15 -34 8 -4 11 -11 8 -14 -9
-9 -40 6 -33 16 3 5 0 9 -6 9 -7 0 -9 7 -5 18 4 12 3 14 -5 6 -14 -14 7 -64
27 -64 18 0 16 -20 -3 -34 -13 -10 -12 -14 11 -26 24 -13 28 -13 39 3 7 9 16
14 19 11 3 -3 4 5 1 18 -2 12 -2 17 2 10 3 -6 9 -10 14 -7 4 3 14 -3 21 -13
13 -15 12 -16 -3 -3 -22 16 -23 3 -3 -23 12 -16 17 -17 30 -6 13 11 18 10 29
-6 8 -10 12 -21 9 -24 -2 -3 -9 3 -14 13 -9 16 -12 16 -34 1 -14 -9 -23 -19
-21 -23 2 -3 -18 -6 -45 -6 -48 0 -49 0 -26 17 15 12 17 18 7 18 -8 0 -22 -4
-29 -9 -10 -6 -23 -5 -35 2 -12 6 -24 10 -28 9 -10 -3 -10 12 -1 21 3 4 17 -3
30 -15 13 -12 23 -18 23 -13 0 14 -41 44 -54 39 -17 -6 -36 17 -32 39 6 42 42
41 49 -1 2 -12 7 -25 12 -29 4 -5 5 -2 1 5 -5 7 -1 12 11 13 16 0 16 1 -2 9
-11 5 -16 9 -11 9 5 1 0 11 -12 24 -12 13 -19 27 -15 31 5 4 2 6 -6 4 -7 -1
-16 4 -19 12 -2 8 -2 12 2 9 9 -8 56 37 56 53 0 6 -11 -1 -25 -16 -26 -29 -36
-33 -33 -13 2 6 -3 11 -9 9 -7 -1 -13 2 -13 8 0 6 8 10 18 10 16 1 16 1 0 14
-10 7 -18 22 -18 32 -1 18 -1 18 -11 1 -5 -9 -7 -22 -4 -27 8 -13 -18 -8 -27
5 -4 6 -8 15 -8 20 0 6 4 4 8 -3 12 -17 60 80 57 112 -3 27 19 37 28 14 4 -10
6 -10 6 -1 1 13 -33 35 -43 28 -3 -3 -2 0 2 5 6 7 17 7 35 1 18 -7 28 -7 33 0
3 6 12 8 19 5 7 -2 18 1 25 7 10 9 12 8 7 -5 -4 -10 -5 -18 -2 -18 2 0 12 8
21 18 17 16 17 16 11 0 -3 -10 -2 -20 3 -23 6 -4 10 -11 10 -17 0 -6 -8 -4
-18 5 -24 22 -49 7 -33 -19 10 -19 10 -19 11 0 0 17 1 17 25 2 14 -9 26 -13
26 -9 1 5 3 18 4 31 3 27 15 42 15 19 0 -17 20 -19 31 -4 3 4 19 9 35 10 16 1
37 11 46 22 16 18 17 18 18 3 0 -10 5 -18 11 -18 6 0 8 9 3 22 -6 20 -5 21 9
10 13 -11 17 -10 27 8 8 14 18 20 30 17 11 -3 22 0 25 7 3 8 7 7 11 -3 5 -11
8 -11 15 0 8 11 12 10 25 -6 16 -20 16 -20 9 3 -6 21 -4 22 19 16 16 -4 26 -2
26 5 0 6 -5 11 -11 11 -5 0 -7 4 -4 10 4 6 11 5 19 -3 8 -6 12 -15 10 -19 -2
-3 6 -4 18 0 12 3 17 7 10 10 -20 6 -13 20 8 15 11 -3 17 -9 14 -14 -3 -5 11
2 32 16 41 28 49 31 38 14z m-448 -126 c-10 -10 -19 5 -10 18 6 11 8 11 12 0
2 -7 1 -15 -2 -18z m-216 -73 c0 -5 -4 -10 -10 -10 -5 0 -10 5 -10 10 0 6 5
10 10 10 6 0 10 -4 10 -10z m-27 -35 c-3 -9 -8 -14 -10 -11 -3 3 -2 9 2 15 9
16 15 13 8 -4z m261 -170 c8 -8 18 -15 23 -15 17 0 10 -47 -8 -58 -21 -13 -26
-3 -7 16 9 9 9 15 -1 25 -11 10 -13 9 -8 -5 4 -10 2 -18 -4 -18 -6 0 -9 12 -7
27 2 15 -2 28 -10 30 -8 3 -10 -1 -6 -14 6 -14 4 -15 -6 -6 -12 11 -6 33 10
33 5 0 15 -7 24 -15z m-224 -9 c0 -11 -19 -15 -25 -6 -3 5 1 10 9 10 9 0 16
-2 16 -4z m198 -40 c8 -15 11 -30 8 -33 -3 -3 -10 6 -15 21 -6 14 -13 26 -15
26 -3 0 -3 -7 0 -15 4 -8 2 -15 -4 -15 -13 0 -24 29 -16 41 9 16 28 5 42 -25z
m-67 -5 c4 7 11 10 15 6 4 -3 1 -13 -6 -22 -7 -8 -9 -15 -4 -15 11 0 -18 -20
-28 -20 -5 0 -8 5 -8 11 0 5 5 7 10 4 7 -4 9 3 5 22 -3 15 -2 22 1 14 5 -11 8
-11 15 0z m193 -48 c15 -18 30 -32 34 -32 19 3 32 -2 32 -12 0 -5 -5 -7 -12
-3 -7 4 -23 9 -36 10 l-23 3 23 -24 c24 -25 48 -33 48 -15 0 15 17 12 23 -3 4
-10 -5 -14 -28 -15 -21 -1 -35 4 -39 13 -6 16 -46 21 -46 5 0 -5 -7 -7 -15 -4
-22 9 -18 24 5 24 11 0 20 5 20 10 0 6 -4 10 -10 10 -5 0 -10 6 -10 13 0 7 -9
18 -21 25 -16 11 -18 16 -9 27 15 18 29 10 64 -32z m-60 -8 c11 -8 17 -17 14
-20 -3 -3 -12 1 -20 8 -8 8 -23 17 -34 20 -18 4 -18 5 1 6 11 0 29 -6 39 -14z
m96 5 c0 -5 -2 -10 -4 -10 -3 0 -8 5 -11 10 -3 6 -1 10 4 10 6 0 11 -4 11 -10z
m-355 -10 c8 -13 -5 -13 -25 0 -13 8 -13 10 2 10 9 0 20 -4 23 -10z m65 -55
c0 -9 -83 4 -93 14 -9 9 -8 11 4 6 10 -4 20 -2 23 4 5 8 66 -13 66 -24z m178
5 c14 0 15 -2 2 -10 -17 -11 -43 7 -33 23 5 8 8 7 11 -1 2 -7 11 -12 20 -12z
m1047 -51 c21 -24 10 -20 -37 13 -16 11 -32 16 -38 13 -6 -3 -7 0 -4 9 5 13 9
14 32 2 15 -8 36 -24 47 -37z m-960 31 c3 -6 -1 -7 -9 -4 -18 7 -21 14 -7 14
6 0 13 -4 16 -10z m920 -140 c3 -5 1 -10 -4 -10 -6 0 -11 5 -11 10 0 6 2 10 4
10 3 0 8 -4 11 -10z m-61 -15 c-4 -8 -1 -15 5 -15 6 0 11 -5 11 -11 0 -5 -4
-8 -9 -5 -5 4 -11 3 -13 -2 -1 -4 -12 1 -22 12 -15 15 -16 18 -4 13 10 -3 19
0 22 9 3 8 8 14 10 14 3 0 3 -7 0 -15z m43 -52 c3 -7 -4 -9 -16 -6 -12 3 -18
9 -15 15 7 11 26 6 31 -9z m-1147 -53 c0 -5 -7 -7 -15 -4 -8 4 -15 8 -15 10 0
2 7 4 15 4 8 0 15 -4 15 -10z m60 -6 c0 -2 -11 -4 -25 -4 -14 0 -25 4 -25 9 0
4 11 6 25 3 14 -2 25 -6 25 -8z m30 12 c0 -3 -4 -8 -10 -11 -5 -3 -10 -1 -10
4 0 6 5 11 10 11 6 0 10 -2 10 -4z m-135 -16 c3 -6 -1 -7 -9 -4 -18 7 -21 14
-7 14 6 0 13 -4 16 -10z m-325 -42 c0 -13 -4 -29 -9 -36 -6 -11 -9 -9 -13 6
-3 11 -1 25 5 31 8 8 8 11 0 11 -6 0 -19 -7 -27 -16 -9 -8 -16 -11 -16 -5 0
11 29 30 48 31 6 0 12 -10 12 -22z m80 18 c0 -3 -4 -8 -10 -11 -5 -3 -10 -1
-10 4 0 6 5 11 10 11 6 0 10 -2 10 -4z m386 -15 c-30 -20 -46 -19 -46 2 0 9 2
9 8 0 6 -10 12 -10 28 2 10 8 24 14 29 15 6 0 -3 -9 -19 -19z m1019 10 c3 -5
1 -12 -5 -16 -5 -3 -10 1 -10 9 0 18 6 21 15 7z m-965 -5 c0 -3 -4 -8 -10 -11
-5 -3 -10 -1 -10 4 0 6 5 11 10 11 6 0 10 -2 10 -4z m-493 -46 c1 -11 -2 -20
-8 -20 -5 0 -9 9 -9 20 0 11 4 20 8 20 4 0 8 -9 9 -20z m435 -2 c-7 -7 -12 -8
-12 -2 0 14 12 26 19 19 2 -3 -1 -11 -7 -17z m-515 1 c-9 -6 -14 -15 -11 -21
4 -7 2 -8 -4 -4 -16 9 -3 36 17 36 14 -1 14 -2 -2 -11z m57 -45 c6 -15 4 -15
-11 -3 -10 7 -20 15 -22 16 -2 2 3 3 11 3 9 0 19 -7 22 -16z m496 -24 c8 -5
11 -10 5 -10 -5 0 -17 5 -25 10 -8 5 -10 10 -5 10 6 0 17 -5 25 -10z m61 -23
c-10 -9 -11 -8 -5 6 3 10 9 15 12 12 3 -3 0 -11 -7 -18z m708 -204 c44 -43 47
-48 16 -25 -22 16 -49 39 -59 51 -23 25 -45 29 -25 4 9 -11 10 -14 2 -9 -7 4
-17 15 -23 26 -19 35 30 9 89 -47z m-57 -11 c-10 -3 -72 24 -72 32 0 3 19 -3
41 -12 23 -9 37 -18 31 -20z m387 -126 c-2 -2 -13 8 -23 22 l-19 27 24 -22
c12 -12 21 -24 18 -27z m-1366 -142 c-2 -6 2 -16 9 -20 13 -9 18 -10 39 -13 6
0 9 -12 7 -26 -3 -13 -2 -22 3 -20 10 7 22 -52 13 -66 -4 -7 -3 -9 3 -6 12 8
26 -20 17 -34 -3 -5 2 -9 11 -9 9 0 13 -5 10 -10 -8 -13 3 -50 15 -50 4 0 6
10 4 23 -4 20 -4 20 4 2 5 -11 7 -26 4 -34 -3 -9 -1 -12 5 -8 6 4 14 1 16 -5
10 -26 7 21 -3 48 -8 21 -8 29 2 36 11 6 11 8 0 8 -7 0 -10 5 -7 10 12 19 37
-11 31 -36 -4 -13 -1 -26 5 -29 6 -4 8 -13 5 -21 -3 -7 -1 -16 4 -19 6 -4 10
2 11 12 0 10 6 2 13 -17 8 -19 11 -39 8 -44 -3 -5 0 -6 7 -2 8 5 14 0 18 -13
3 -12 10 -21 17 -20 17 3 47 -12 41 -20 -2 -4 9 -23 26 -42 25 -28 28 -30 19
-9 -8 18 1 12 30 -20 35 -38 41 -41 36 -20 -6 23 -6 23 7 8 8 -10 18 -14 23
-10 4 4 2 -1 -5 -10 -13 -18 -8 -38 11 -38 7 0 6 6 -2 15 -8 10 -9 15 -2 15 6
0 16 -9 22 -20 6 -11 16 -17 25 -14 10 4 15 0 16 -12 1 -17 2 -17 6 -1 7 26
21 21 43 -15 11 -18 20 -28 20 -22 0 6 14 14 31 18 20 4 28 10 23 18 -6 9 -9
9 -12 0 -3 -10 -7 -10 -20 0 -12 10 -14 10 -8 1 4 -7 3 -13 -2 -13 -5 0 -15
11 -22 25 -7 13 -16 23 -19 20 -4 -2 -7 5 -7 15 0 23 20 15 35 -13 6 -12 9
-14 7 -5 -4 14 0 17 23 14 15 -2 33 -6 40 -10 6 -4 11 -4 11 1 0 4 -11 13 -25
20 -18 8 -25 8 -25 0 0 -6 -8 -4 -17 6 -24 23 -14 27 30 12 20 -7 37 -9 37 -4
0 5 -11 11 -25 15 -14 3 -22 10 -19 15 3 5 10 6 16 3 6 -4 15 0 20 7 8 11 9
10 4 -4 -3 -10 -2 -15 4 -12 5 3 20 1 32 -5 22 -11 22 -10 4 4 -23 19 -26 18
84 18 75 0 79 1 35 8 l-50 7 55 3 c30 1 62 2 70 1 11 -1 10 3 -4 14 -19 15
-19 15 1 15 12 0 23 -3 26 -7 2 -5 2 -2 1 4 -2 7 6 17 16 23 15 8 20 8 21 -2
0 -7 4 -4 8 6 5 14 19 20 52 21 24 2 50 -3 58 -9 12 -9 13 -8 6 4 -6 12 -5 13
6 3 7 -7 22 -13 34 -13 17 0 18 2 5 11 -12 9 -10 10 8 6 13 -3 21 -3 18 0 -9
9 30 34 46 30 7 -2 10 -2 6 0 -9 5 7 22 45 46 24 15 27 16 27 2 0 -9 5 -13 10
-10 6 3 10 1 10 -6 0 -7 3 -10 6 -7 3 4 -2 17 -10 30 -9 14 -13 28 -9 31 13
13 21 7 16 -13 -4 -14 0 -20 11 -20 9 0 15 6 13 13 -1 6 5 12 13 12 8 0 17 5
20 11 3 7 12 4 25 -8 15 -15 16 -19 5 -18 -29 4 -40 0 -40 -15 0 -8 5 -15 10
-15 6 0 10 5 10 10 0 19 17 10 28 -15 11 -24 10 -25 -7 -15 -34 18 -37 10 -6
-16 18 -15 23 -22 11 -18 -15 6 -17 4 -11 -7 5 -7 10 -22 10 -32 1 -10 6 -22
11 -25 5 -4 11 -29 12 -56 2 -26 10 -59 18 -72 9 -13 14 -29 11 -36 -3 -8 -6
-6 -6 5 -1 29 -21 9 -21 -22 0 -15 -4 -31 -10 -37 -5 -5 -11 -22 -12 -36 -2
-21 -5 -24 -15 -16 -11 9 -12 6 -4 -13 5 -13 16 -23 24 -23 9 1 13 -4 10 -13
-3 -8 -13 -11 -25 -7 -17 5 -18 3 -9 -14 7 -13 8 -29 2 -44 -11 -26 -12 -25
-16 20 -1 18 -5 36 -10 40 -4 4 -6 0 -5 -8 1 -8 2 -22 1 -30 -1 -12 -4 -11
-16 4 -14 18 -35 14 -35 -7 0 -8 3 -7 9 2 7 11 13 8 27 -14 14 -21 15 -30 6
-33 -6 -2 -12 -8 -12 -13 0 -6 5 -7 11 -4 6 4 5 -3 -3 -14 -11 -18 -11 -23 1
-30 9 -6 10 -11 2 -15 -6 -4 -11 -2 -11 4 0 6 -5 8 -11 4 -7 -4 -9 0 -5 14 5
14 0 26 -18 40 -14 10 -22 23 -18 27 4 5 1 5 -5 1 -7 -4 -13 -3 -13 2 0 5 -7
9 -16 9 -12 0 -10 -5 7 -20 l24 -19 -23 5 c-13 3 -20 1 -16 -5 3 -5 18 -8 32
-6 20 2 27 -2 29 -17 2 -11 0 -14 -3 -7 -7 15 -44 16 -44 1 0 -5 4 -8 9 -5 5
3 14 -1 21 -9 23 -28 -23 -5 -48 24 l-22 26 9 -25 c9 -28 4 -53 -9 -45 -5 3
-7 12 -4 19 3 7 -2 19 -11 26 -14 12 -16 10 -13 -11 2 -13 7 -30 11 -37 7 -10
3 -10 -17 -1 -14 7 -23 16 -19 22 10 16 -19 26 -41 15 -18 -10 -19 -9 -8 4 11
13 9 16 -13 16 -21 0 -24 -4 -19 -21 6 -20 6 -20 -10 -4 -15 15 -16 19 -3 31
11 11 17 12 26 3 8 -8 11 -8 11 1 0 7 -4 13 -10 13 -5 1 -14 3 -20 4 -5 1 -15
3 -22 4 -9 1 -9 4 0 13 7 7 12 17 12 23 0 5 -5 3 -10 -5 -9 -13 -11 -13 -21 0
-9 12 -10 12 -5 -4 6 -16 4 -17 -9 -6 -14 11 -19 7 -16 -12 2 -17 -16 -6 -25
15 -6 12 -9 16 -7 10 4 -19 -17 -16 -24 3 -5 15 -7 15 -15 0 -10 -18 -28 -22
-28 -5 0 5 5 7 10 4 6 -3 10 -2 10 3 0 5 -11 10 -25 10 -22 0 -24 -3 -13 -17
12 -14 11 -14 -4 -2 -14 10 -15 17 -7 33 6 11 8 22 5 26 -3 3 -6 0 -6 -8 0
-10 -3 -10 -15 0 -13 11 -14 10 -9 -5 6 -14 4 -16 -7 -10 -8 5 -2 -7 14 -27
36 -48 34 -55 -6 -24 -52 40 -56 31 -7 -14 24 -22 49 -40 54 -40 5 0 7 -3 4
-6 -7 -7 -50 14 -60 30 -5 7 -8 6 -8 -4 0 -8 23 -26 50 -39 28 -13 50 -27 50
-33 0 -5 -4 -6 -10 -3 -5 3 -10 1 -10 -4 0 -6 7 -11 17 -11 13 0 12 -3 -5 -19
-23 -19 -20 -33 4 -24 8 3 11 9 8 14 -3 5 0 9 5 9 16 0 13 -11 -6 -33 -17 -18
-17 -19 1 -16 10 2 21 -1 23 -7 2 -6 -2 -11 -9 -12 -7 -1 -29 -5 -48 -10 -26
-7 -29 -10 -12 -11 12 -1 25 -8 28 -16 5 -12 9 -12 30 3 13 9 24 23 24 31 0 8
6 11 16 7 8 -3 12 -2 9 4 -3 6 -1 10 4 10 6 0 11 -6 11 -12 0 -9 4 -8 10 2 8
13 10 12 10 -3 0 -10 4 -15 10 -12 6 3 7 -1 4 -9 -3 -9 -10 -16 -16 -16 -5 0
-6 5 -3 10 3 6 1 10 -4 10 -6 0 -11 -3 -11 -7 0 -11 20 -40 20 -30 0 5 7 1 16
-7 12 -12 20 -13 35 -5 11 5 17 14 13 20 -4 7 -10 6 -19 -1 -9 -7 -15 -8 -19
-1 -4 6 3 15 14 21 14 8 20 8 20 0 0 -6 4 -9 9 -6 5 4 8 0 6 -6 -10 -42 -19
-57 -28 -51 -6 4 -8 0 -4 -10 8 -21 -3 -22 -29 -1 -10 8 -13 13 -6 9 14 -7 17
11 2 20 -6 3 -17 -1 -26 -9 -19 -19 -26 -20 -44 -3 -8 6 0 -5 19 -25 19 -21
37 -35 40 -32 3 3 -2 10 -12 15 -9 6 -17 15 -17 20 0 6 5 7 13 2 20 -13 76
-31 75 -24 -2 17 3 31 10 31 15 0 7 -73 -7 -78 -10 -3 -12 1 -8 12 4 9 3 16
-2 16 -18 0 -19 -14 -3 -38 9 -14 15 -35 14 -46 -5 -27 13 -10 23 21 5 19 3
22 -12 16 -16 -6 -16 -5 -4 10 18 22 28 21 34 -2 6 -23 37 -19 62 9 15 17 15
20 -1 45 -16 24 -16 26 2 39 10 8 23 12 29 10 6 -3 17 7 25 21 11 21 11 27 0
38 -10 10 -12 9 -7 -4 3 -9 0 -22 -6 -28 -13 -13 -31 -15 -22 -2 3 5 1 12 -4
16 -6 3 -8 12 -4 20 3 8 -1 15 -8 15 -7 0 -9 3 -6 6 4 4 13 2 21 -5 11 -9 17
-8 29 4 10 9 18 11 22 5 3 -5 1 -10 -6 -10 -9 0 -9 -3 1 -15 7 -8 9 -23 4 -37
-6 -20 -5 -21 9 -9 9 7 14 18 10 24 -3 5 -1 7 4 4 6 -4 25 8 43 26 25 24 30
27 21 9 -7 -12 -9 -27 -6 -32 3 -5 0 -12 -6 -16 -8 -4 -9 -3 -5 4 8 14 -3 15
-23 3 -7 -5 -11 -13 -7 -19 3 -6 2 -13 -4 -17 -5 -3 -10 -1 -10 6 0 8 -3 9
-13 0 -8 -6 -18 -7 -22 -3 -5 4 -5 2 -2 -5 4 -6 -1 -19 -10 -29 -19 -19 -28
-64 -13 -64 5 0 7 -7 4 -15 -4 -8 -1 -15 5 -15 6 0 11 6 12 13 1 6 5 1 9 -13
8 -25 8 -25 9 -2 1 13 5 21 9 18 5 -3 7 -20 4 -37 -4 -28 -2 -31 16 -27 27 8
38 -20 16 -41 -15 -15 -15 -14 -5 7 17 33 -9 29 -44 -8 -15 -16 -31 -27 -36
-25 -4 3 -10 -1 -12 -7 -4 -9 -6 -7 -6 3 -1 9 8 26 19 39 18 21 26 40 17 40
-9 0 -48 -39 -46 -46 5 -28 -2 -43 -17 -37 -10 4 -15 1 -14 -8 4 -26 0 -37
-16 -43 -12 -5 -15 -2 -10 10 4 10 -7 5 -27 -12 -19 -17 -29 -32 -23 -36 6 -4
4 -13 -5 -24 -13 -16 -12 -16 9 -3 24 15 29 29 11 29 -8 0 -8 5 1 15 18 22 32
18 25 -6 -5 -13 -2 -25 6 -30 14 -9 22 -89 8 -89 -4 0 -7 16 -5 35 3 47 -19
67 -35 31 -7 -14 -15 -26 -19 -26 -4 0 -17 -9 -30 -20 -21 -18 -22 -23 -10
-45 10 -19 16 -22 27 -14 7 6 13 8 13 4 0 -4 -11 -16 -25 -27 -14 -11 -23 -24
-20 -29 4 -5 1 -9 -5 -9 -7 0 -9 7 -6 15 3 8 8 21 11 28 3 7 -3 22 -15 32 -12
11 -20 13 -20 6 0 -7 -5 -9 -10 -6 -6 4 -10 3 -9 -2 1 -4 0 -17 -1 -28 -2 -17
-3 -17 -10 5 -7 21 -8 22 -9 5 -1 -11 -8 -31 -17 -44 -13 -18 -23 -22 -45 -17
-22 4 -27 2 -22 -9 4 -11 1 -13 -11 -9 -13 5 -14 9 -5 21 7 7 19 11 27 8 10
-4 13 0 9 15 -3 11 -1 23 4 26 5 3 6 10 3 16 -5 7 -10 3 -15 -10 -12 -32 -33
-28 -24 5 5 21 4 24 -7 15 -8 -6 -19 -7 -28 -2 -15 9 -30 4 -30 -10 0 -5 7 -7
16 -3 11 4 22 -1 30 -12 17 -23 18 -36 2 -33 -7 2 -12 -3 -10 -9 1 -7 -2 -13
-6 -13 -16 0 -21 13 -12 31 8 15 6 17 -11 16 -15 -1 -19 -7 -16 -24 2 -12 0
-28 -5 -35 -7 -10 -8 -9 -6 3 2 9 -13 29 -31 45 -24 20 -33 24 -28 12 8 -21
-6 -24 -22 -4 -9 11 -7 15 11 20 17 4 28 0 42 -17 14 -16 18 -17 13 -4 -4 11
-1 17 8 17 16 0 10 29 -9 43 -8 6 -7 10 2 14 6 2 9 9 6 14 -3 6 -12 2 -21 -8
-13 -16 -14 -16 -9 -1 3 10 1 20 -4 23 -5 3 -12 -4 -15 -15 -6 -20 -9 -18 -33
14 -27 35 -42 45 -42 27 0 -5 12 -19 26 -30 19 -15 22 -21 11 -21 -9 0 -24 11
-33 25 -9 14 -21 22 -27 18 -6 -4 -7 -1 -2 7 4 7 2 16 -6 21 -11 7 -10 9 4 9
9 0 17 -4 17 -9 0 -5 9 -7 20 -4 13 4 17 9 12 17 -15 18 -21 56 -10 56 7 0 6
5 -1 14 -7 8 -11 27 -9 42 2 15 -2 29 -8 31 -11 4 -10 -45 1 -74 2 -7 0 -15
-4 -18 -11 -6 -23 23 -16 36 4 5 -1 6 -9 3 -8 -3 -12 -13 -9 -22 4 -14 3 -15
-6 -2 -5 8 -13 12 -16 8 -4 -3 3 -15 15 -25 21 -20 18 -59 -4 -46 -6 3 -4 -2
5 -13 9 -10 14 -25 12 -31 -3 -7 0 -13 7 -13 13 0 71 -123 68 -142 -2 -7 5
-12 14 -12 10 1 15 -2 12 -7 -3 -5 0 -9 5 -9 6 0 10 -3 10 -7 -1 -5 0 -19 1
-33 2 -17 4 -20 7 -8 3 11 10 15 20 11 12 -5 14 -3 8 8 -4 8 -6 12 -2 9 3 -3
5 -7 5 -10 0 -3 7 -22 15 -42 9 -21 12 -38 6 -38 -5 0 -9 5 -9 12 0 6 -2 9 -5
6 -3 -3 -1 -18 5 -34 11 -28 11 -28 -9 -10 -11 10 -18 22 -16 27 3 4 1 10 -4
13 -15 9 -7 -38 9 -52 8 -8 9 -11 3 -7 -9 4 -13 -1 -13 -15 0 -12 -4 -19 -10
-15 -5 3 -7 12 -3 20 4 11 -2 15 -20 15 -14 0 -29 5 -32 11 -4 6 -14 8 -24 5
-13 -5 -12 -3 3 8 10 8 15 19 11 25 -3 6 -4 11 0 11 3 0 10 -11 15 -25 11 -30
26 -32 33 -6 3 14 1 18 -10 14 -7 -3 -13 -2 -12 3 3 20 -2 32 -17 38 -8 3 -12
2 -9 -4 3 -6 2 -10 -4 -10 -20 0 -23 22 -5 36 17 14 17 15 2 10 -44 -15 -51
-16 -31 -5 30 16 38 39 12 39 -11 0 -17 4 -14 10 3 6 -1 7 -9 4 -9 -3 -13 -10
-10 -15 3 -5 3 -9 0 -9 -14 0 -14 20 -1 34 9 9 11 17 5 21 -5 3 -10 1 -10 -4
0 -6 -7 -11 -15 -11 -8 0 -15 5 -15 11 0 5 4 7 10 4 6 -4 7 1 3 11 -5 13 -3
15 7 9 9 -6 11 -4 5 5 -6 10 -10 10 -19 -3 -9 -11 -17 -12 -29 -6 -11 7 -17 6
-17 -1 0 -5 -5 -10 -11 -10 -6 0 -9 6 -6 13 2 6 0 20 -5 30 -7 14 -12 16 -24
7 -7 -7 -11 -17 -8 -22 4 -6 10 -5 15 3 6 10 8 8 7 -6 -1 -13 -9 -21 -20 -21
-13 0 -16 7 -14 29 4 31 23 50 43 42 7 -2 15 1 19 7 4 6 3 8 -3 5 -6 -4 -21 2
-33 13 -26 22 -40 25 -40 9 0 -5 4 -8 9 -5 10 7 23 -19 14 -28 -11 -10 -42 25
-36 40 3 8 2 14 -3 13 -5 0 -19 2 -31 6 -28 9 -31 29 -4 22 12 -3 18 0 15 7
-4 11 -44 17 -41 6 1 -3 -2 -6 -7 -7 -5 -1 -13 -7 -18 -15 -6 -9 -7 -6 -3 10
7 24 -9 31 -19 7 -8 -21 -27 -19 -19 3 5 13 1 12 -16 -5 -12 -13 -27 -23 -34
-23 -7 0 -6 4 3 10 13 9 13 11 0 21 -12 8 -10 9 9 4 17 -5 22 -4 19 6 -3 8 2
20 11 27 9 8 10 11 4 7 -7 -3 -13 -1 -13 6 0 7 -7 4 -15 -7 -14 -18 -14 -17
-5 9 6 18 7 35 0 46 -5 10 -6 21 -3 25 3 3 2 6 -3 6 -6 0 -15 -5 -22 -12 -9
-9 -16 -8 -29 5 -11 11 -13 17 -5 17 7 0 12 7 12 16 0 13 -3 14 -13 5 -14 -11
-27 -5 -27 13 0 6 5 4 10 -4 8 -13 10 -13 10 2 0 9 -6 19 -12 22 -7 3 -4 4 6
3 10 -1 21 4 24 12 3 8 0 11 -6 7 -6 -3 -14 -2 -17 4 -4 6 -3 10 2 9 27 -5 45
2 40 15 -4 10 -1 13 7 10 10 -4 13 3 10 24 -6 54 43 50 102 -7 18 -16 34 -27
37 -24 3 3 12 0 19 -6 50 -40 67 -59 60 -66 -4 -4 3 -6 15 -3 12 3 21 3 20 -1
-3 -10 58 -81 71 -81 17 1 35 20 37 39 1 12 10 27 21 35 10 8 16 18 12 22 -5
4 -17 -1 -28 -11 -11 -10 -20 -13 -20 -8 0 6 7 13 15 17 8 3 15 12 15 19 0 8
10 22 23 31 19 15 18 15 -10 0 -18 -10 -30 -21 -27 -26 13 -21 -13 -4 -30 20
l-20 27 22 -19 c12 -11 22 -14 22 -8 0 6 -5 14 -10 17 -8 5 -8 11 0 20 8 10 6
18 -11 33 -11 11 -27 18 -34 16 -7 -3 -15 2 -19 12 -5 14 -4 15 8 5 11 -9 15
-8 19 4 4 8 1 14 -6 12 -7 -1 -11 3 -10 9 1 7 -6 10 -20 7 -18 -4 -19 -3 -7 6
9 7 11 14 5 19 -5 4 -18 17 -28 29 -15 17 -17 26 -7 45 9 19 9 20 -2 7 -13
-16 -48 -22 -48 -8 0 3 10 9 22 12 17 5 19 9 10 20 -7 8 -8 18 -4 22 4 5 1 5
-6 1 -10 -6 -10 -11 -1 -22 7 -9 7 -14 1 -14 -11 0 -55 69 -55 88 0 15 -17 16
-17 1 0 -5 -5 -7 -11 -4 -6 4 -8 14 -5 22 4 11 2 13 -9 9 -10 -3 -17 3 -21 20
-3 13 -18 33 -31 44 -14 11 -20 20 -14 20 7 0 9 5 6 11 -4 5 -12 8 -18 6 -14
-5 -67 51 -67 70 0 8 -4 12 -9 8 -5 -3 -12 4 -16 14 -6 20 -7 20 -40 1 l-34
-19 6 33 c5 32 -10 57 -25 41 -3 -3 0 -10 8 -15 11 -7 12 -10 2 -10 -8 0 -10
-5 -6 -12 12 -19 12 -62 0 -78 -9 -13 -9 -13 6 -2 15 12 19 10 33 -17 15 -31
15 -31 -11 -31 -26 0 -26 -1 -11 -18 10 -10 17 -24 17 -30 0 -14 -34 18 -50
47 -6 12 -15 21 -21 21 -6 0 -1 -13 11 -30 12 -16 18 -30 14 -30 -3 0 -1 -7 6
-15 10 -12 10 -15 0 -15 -10 0 -10 -3 0 -15 13 -16 4 -59 -11 -50 -5 4 -9 1
-9 -5 0 -6 -5 -8 -10 -5 -6 4 -22 -1 -35 -9 -14 -9 -25 -12 -25 -7 0 5 -8 12
-18 16 -11 3 -24 17 -30 31 -15 32 -15 47 -1 38 8 -5 8 -1 0 13 -6 11 -7 24
-3 28 4 4 -4 4 -18 1 -14 -4 -20 -4 -15 1 6 4 11 21 12 37 1 20 -2 25 -8 15
-7 -12 -10 -12 -21 0 -10 10 -10 12 0 7 6 -4 12 -3 12 3 0 5 3 17 7 27 4 11 3
15 -4 11 -7 -5 -9 1 -5 15 3 14 1 19 -6 14 -8 -5 -9 4 -6 26 3 18 6 59 6 90 0
32 4 55 9 52 5 -3 6 2 3 10 -3 9 -10 13 -15 10 -12 -7 -11 -1 1 31 9 23 8 26
-4 22 -11 -4 -13 -1 -9 10 5 12 3 14 -7 8 -8 -5 -11 -4 -6 3 4 6 14 9 24 6 11
-4 13 -3 6 3 -16 11 -21 45 -10 62 6 10 5 12 -2 7 -7 -4 -12 -2 -12 4 0 6 7
13 15 16 8 4 12 10 9 15 -3 5 -10 7 -15 4 -5 -4 -9 -1 -9 4 0 6 4 11 10 11 5
0 8 10 6 23 -3 12 -5 22 -6 22 -2 0 -4 15 -13 83 -3 17 -10 39 -17 47 -8 10
-9 15 -1 15 7 0 8 8 1 26 -7 17 -7 23 0 19 6 -3 14 5 20 19 11 29 31 33 50 11
7 -8 18 -15 24 -15 6 0 3 7 -6 14 -22 17 -12 29 12 14 10 -7 16 -17 13 -24z
m1412 16 c3 -6 -1 -7 -9 -4 -18 7 -21 14 -7 14 6 0 13 -4 16 -10z m63 -75 c-3
-3 -9 2 -12 12 -6 14 -5 15 5 6 7 -7 10 -15 7 -18z m12 -32 c0 -10 3 -29 5
-43 5 -22 3 -21 -9 5 -18 36 -20 55 -6 55 6 0 10 -8 10 -17z m-45 -3 c3 -6 -1
-7 -9 -4 -18 7 -21 14 -7 14 6 0 13 -4 16 -10z m-25 -20 c0 -5 -5 -10 -11 -10
-5 0 -7 5 -4 10 3 6 8 10 11 10 2 0 4 -4 4 -10z m404 -23 c-3 -8 2 -20 11 -27
13 -11 13 -16 -7 -49 -30 -50 -88 -110 -102 -105 -7 3 -21 -6 -33 -18 -33 -37
-63 -59 -73 -53 -5 3 -7 -8 -5 -25 2 -21 0 -30 -8 -27 -17 5 -21 74 -7 120 16
53 132 163 181 170 13 2 25 9 27 15 2 7 8 12 13 12 4 0 6 -6 3 -13z m37 -14
c13 -16 12 -17 -3 -4 -10 7 -18 15 -18 17 0 8 8 3 21 -13z m-437 -9 c3 -8 2
-12 -4 -9 -6 3 -10 10 -10 16 0 14 7 11 14 -7z m86 -20 c0 -8 -5 -12 -10 -9
-6 4 -8 11 -5 16 9 14 15 11 15 -7z m-673 -30 c-3 -3 -12 -4 -19 -1 -8 3 -5 6
6 6 11 1 17 -2 13 -5z m-923 -20 c3 -8 2 -12 -4 -9 -6 3 -10 10 -10 16 0 14 7
11 14 -7z m841 6 c-3 -5 -16 -10 -28 -9 -20 1 -20 2 3 9 14 4 26 8 28 9 2 1 0
-3 -3 -9z m775 -47 c7 -32 15 -65 18 -73 3 -10 2 -12 -5 -5 -6 6 -15 31 -21
56 -7 26 -14 54 -18 63 -3 9 -2 16 3 16 6 0 16 -26 23 -57z m-795 17 c-3 -5
-12 -10 -18 -10 -7 0 -6 4 3 10 19 12 23 12 15 0z m698 -5 c-3 -9 -8 -14 -10
-11 -3 3 -2 9 2 15 9 16 15 13 8 -4z m2 -55 c3 -5 1 -10 -4 -10 -6 0 -11 5
-11 10 0 6 2 10 4 10 3 0 8 -4 11 -10z m290 -144 c18 7 30 -13 63 -106 82
-234 66 -411 -42 -475 -26 -15 -46 -34 -46 -44 0 -30 -48 -89 -79 -96 -33 -7
-43 -23 -33 -57 7 -22 16 -27 57 -32 12 -1 26 -6 33 -10 16 -10 15 6 -2 30
-13 17 -12 22 10 51 13 17 24 36 24 42 0 6 7 11 15 11 8 0 15 5 15 11 0 5 4 8
9 5 5 -4 11 0 14 6 3 7 4 0 2 -17 -1 -16 -3 -36 -4 -43 0 -7 -5 -11 -10 -7
-11 6 -26 -78 -17 -93 3 -5 -7 -22 -22 -39 -15 -17 -36 -42 -47 -56 -11 -13
-26 -22 -32 -20 -7 3 -13 1 -13 -4 0 -11 -50 -10 -68 1 -7 4 -12 2 -12 -5 0
-7 -3 -10 -6 -7 -3 3 0 62 6 130 16 178 17 187 38 181 21 -5 46 20 59 61 6 20
19 32 46 41 47 16 60 27 97 83 27 41 30 53 30 129 0 62 -4 91 -17 111 -28 43
-37 50 -99 71 -32 12 -62 25 -67 30 -14 14 10 67 39 90 13 11 24 25 24 32 0
10 3 10 11 2 6 -6 17 -9 24 -7z m-1810 -26 c3 -5 1 -10 -4 -10 -6 0 -11 5 -11
10 0 6 2 10 4 10 3 0 8 -4 11 -10z m275 -217 c14 -26 24 -51 23 -55 -2 -4 3
-8 10 -8 16 -1 95 -118 107 -159 5 -19 5 -29 -1 -26 -5 4 -9 13 -9 21 0 8 -7
17 -15 20 -8 4 -12 11 -8 17 4 6 0 8 -9 4 -11 -4 -18 1 -22 15 -4 18 -7 19
-21 8 -9 -7 -15 -9 -14 -4 1 5 -3 23 -10 39 -7 17 -15 41 -17 55 -6 35 -35
100 -46 100 -4 0 -8 5 -8 10 0 23 17 7 40 -37z m1410 -104 c8 -30 8 -44 -1
-55 -22 -26 -29 -14 -29 47 0 68 13 71 30 8z m-1395 -36 c1 -33 -11 -14 -19
27 -5 30 -4 32 6 15 7 -11 13 -30 13 -42z m830 37 c3 -6 -1 -7 -9 -4 -18 7
-21 14 -7 14 6 0 13 -4 16 -10z m-6 -44 c-3 -3 -11 5 -18 17 -13 21 -12 21 5
5 10 -10 16 -20 13 -22z m-69 2 c0 -4 -9 -8 -20 -8 -11 0 -20 4 -20 8 0 4 9 8
20 8 11 0 20 -4 20 -8z m40 -28 c-11 -7 -31 -7 -50 0 -3 1 6 5 20 9 28 9 48 2
30 -9z m135 11 c-3 -5 1 -16 10 -24 13 -13 13 -16 0 -21 -9 -3 -15 0 -15 8 0
8 -3 21 -6 30 -3 9 -1 16 6 16 6 0 9 -4 5 -9z m-27 -26 c-3 -3 -9 2 -12 12 -6
14 -5 15 5 6 7 -7 10 -15 7 -18z m-34 -5 c-6 -6 -15 -5 -24 1 -13 9 -12 10 3
5 9 -3 17 0 17 6 0 6 3 8 7 5 4 -4 2 -12 -3 -17z m185 -3 c-15 -27 -1 -35 17
-9 18 25 42 29 50 7 8 -21 24 -19 25 3 0 10 3 12 6 5 2 -7 -5 -25 -17 -40 -18
-23 -21 -24 -16 -7 7 23 -24 60 -31 38 -2 -6 -10 -20 -18 -30 -13 -19 -14 -19
-29 1 -11 15 -17 17 -27 8 -9 -9 -8 -15 5 -28 9 -9 16 -21 16 -26 0 -6 -11 2
-25 17 -14 15 -25 34 -25 43 0 13 2 13 9 3 7 -11 9 -11 14 2 4 10 12 13 23 9
13 -5 16 -2 12 9 -4 8 -1 15 7 15 11 0 11 -5 4 -20z m-819 -6 c16 -31 12 -36
-10 -11 -23 26 -24 30 -10 30 5 0 14 -9 20 -19z m-365 -1 c-3 -5 -12 -10 -18
-10 -7 0 -6 4 3 10 19 12 23 12 15 0z m915 -2 c0 -4 -6 -8 -14 -8 -8 0 -17 4
-20 8 -2 4 4 8 15 8 10 0 19 -4 19 -8z m50 -13 c0 -8 -2 -15 -4 -15 -2 0 -6 7
-10 15 -3 8 -1 15 4 15 6 0 10 -7 10 -15z m65 5 c3 -5 2 -10 -4 -10 -5 0 -13
5 -16 10 -3 6 -2 10 4 10 5 0 13 -4 16 -10z m-85 -33 c0 -4 -6 -2 -14 5 -8 7
-12 17 -9 22 5 8 23 -12 23 -27z m-29 -7 c6 0 7 -4 4 -10 -8 -12 -16 -12 -34
-1 -13 8 -13 12 0 27 13 16 14 16 17 1 2 -10 8 -17 13 -17z m92 -1 c-8 -8 -16
-8 -30 1 -15 10 -15 11 -1 6 10 -3 20 -1 24 5 3 6 9 8 12 4 3 -3 1 -10 -5 -16z
m212 1 c-10 -11 -22 -17 -28 -13 -6 4 -3 12 8 20 28 20 41 16 20 -7z m-155
-20 c0 -5 -2 -10 -4 -10 -3 0 -8 5 -11 10 -3 6 -1 10 4 10 6 0 11 -4 11 -10z
m-65 -10 c3 -6 -1 -7 -9 -4 -18 7 -21 14 -7 14 6 0 13 -4 16 -10z m319 -22
c-10 -16 -22 -7 -17 13 4 15 8 17 14 8 4 -7 5 -17 3 -21z m-94 12 c0 -5 -2
-10 -4 -10 -3 0 -8 5 -11 10 -3 6 -1 10 4 10 6 0 11 -4 11 -10z m-358 -22 c-6
-6 -15 -8 -19 -4 -4 4 -1 11 7 16 19 12 27 3 12 -12z m248 -22 c-4 -4 -6 -15
-3 -23 5 -13 2 -13 -15 -4 -14 7 -23 8 -27 1 -3 -5 2 -10 12 -11 10 0 13 -3 6
-6 -7 -2 -13 -12 -13 -21 0 -15 2 -15 11 -2 9 13 10 13 6 0 -2 -8 -11 -14 -21
-12 -9 2 -16 -2 -16 -8 0 -5 5 -10 10 -10 6 0 10 -12 10 -27 0 -26 -1 -25 -19
11 -11 21 -17 44 -15 51 3 7 0 16 -6 20 -7 5 -2 12 15 21 15 8 31 11 36 9 5
-3 11 6 15 21 5 19 9 22 15 13 4 -8 4 -18 -1 -23z m626 -15 c-9 -16 -16 -37
-16 -45 0 -10 -6 -13 -16 -9 -9 3 -12 9 -7 12 4 3 16 23 26 45 10 21 20 36 23
33 3 -3 -2 -19 -10 -36z m-676 25 c0 -3 -4 -8 -10 -11 -5 -3 -10 -1 -10 4 0 6
5 11 10 11 6 0 10 -2 10 -4z m183 -69 c-3 -20 -10 -37 -15 -37 -5 0 -7 -4 -3
-9 3 -5 0 -13 -6 -17 -7 -4 -9 -3 -5 4 3 6 2 13 -4 17 -5 3 -10 1 -10 -4 0 -6
-5 -11 -12 -11 -6 0 -8 3 -5 7 4 3 -1 12 -11 20 -16 12 -16 13 1 7 13 -5 17
-1 17 16 0 11 4 19 10 15 5 -3 7 -12 4 -19 -3 -8 -1 -17 4 -20 5 -3 15 13 22
34 16 48 22 47 13 -3z m23 -47 c0 -12 -4 -16 -9 -11 -5 5 -6 14 -3 20 10 15
12 14 12 -9z m-731 0 c3 -5 2 -10 -4 -10 -5 0 -13 5 -16 10 -3 6 -2 10 4 10 5
0 13 -4 16 -10z m573 -2 c-6 -18 -28 -21 -28 -4 0 9 7 16 16 16 9 0 14 -5 12
-12z m179 -43 c-11 -23 -27 -34 -27 -18 0 6 30 43 36 43 1 0 -3 -11 -9 -25z
m-1166 -92 c13 -16 12 -17 -3 -4 -10 7 -18 15 -18 17 0 8 8 3 21 -13z m416 -8
c0 -8 -4 -12 -9 -9 -5 3 -6 10 -3 15 9 13 12 11 12 -6z m-492 -15 c3 -6 -1 -7
-9 -4 -18 7 -21 14 -7 14 6 0 13 -4 16 -10z m55 -10 c-14 -9 -7 -15 15 -10 6
1 4 -5 -4 -12 -11 -10 -14 -10 -18 0 -3 6 -10 9 -16 5 -7 -4 -6 1 2 10 7 9 19
17 25 17 6 0 4 -5 -4 -10z m417 4 c-3 -3 -12 -4 -19 -1 -8 3 -5 6 6 6 11 1 17
-2 13 -5z m-315 -48 c-6 -20 -6 -20 -12 4 -8 29 -1 48 10 30 4 -7 5 -22 2 -34z
m971 17 c-3 -16 -6 -36 -5 -45 0 -10 -3 -18 -9 -18 -5 0 -9 -12 -10 -27 0 -16
-3 -23 -5 -16 -3 7 -12 9 -20 6 -8 -3 -21 0 -29 7 -22 18 1 43 33 35 14 -3 21
-2 18 4 -6 8 22 81 31 81 2 0 0 -12 -4 -27z m-1003 7 c8 -5 11 -12 8 -16 -4
-3 -14 1 -23 10 -18 17 -9 21 15 6z m-136 -12 c-5 -8 -1 -9 12 -4 14 5 16 4 7
-5 -13 -13 -37 -3 -28 12 4 5 8 9 11 9 3 0 2 -5 -2 -12z m1108 4 c-6 -5 -18
-16 -25 -27 -9 -11 -16 -14 -21 -7 -8 13 20 42 42 42 12 0 14 -3 4 -8z m49
-23 c-5 -13 -10 -19 -10 -12 -1 15 10 45 15 40 3 -2 0 -15 -5 -28z m-1191 -19
c-12 -23 2 -26 44 -10 16 6 27 6 31 -1 4 -5 3 -9 -2 -8 -24 4 -39 -3 -40 -21
-2 -19 0 -19 23 -3 14 8 27 13 31 9 3 -3 1 -6 -5 -6 -9 0 -9 -6 -1 -24 7 -15
17 -22 25 -19 11 4 12 9 3 19 -7 8 -7 14 -1 14 5 0 15 -13 22 -30 7 -17 19
-29 29 -28 32 2 51 -2 51 -13 0 -5 -4 -7 -10 -4 -5 3 -10 1 -10 -5 0 -7 6 -10
14 -7 20 8 28 -4 15 -20 -9 -9 -8 -13 0 -13 6 0 11 5 11 10 0 6 6 10 13 10 17
0 18 -29 3 -50 -12 -17 -56 -22 -53 -6 2 10 -4 12 -39 15 -10 1 -14 7 -10 17
3 8 2 12 -4 9 -6 -3 -10 -2 -10 4 0 6 -7 8 -15 5 -9 -4 -15 0 -15 7 0 12 -2
12 -9 1 -7 -11 -9 -11 -14 2 -4 9 -12 13 -20 10 -8 -3 -20 2 -27 10 -7 9 -17
13 -24 9 -6 -4 -3 6 8 22 10 17 13 24 5 18 -20 -19 -26 -16 -27 15 0 15 -1 32
-2 37 -5 22 1 45 10 45 7 0 7 -6 0 -20z m153 2 c2 7 7 10 11 7 4 -3 0 -11 -7
-18 -11 -9 -17 -7 -28 6 -13 16 -12 17 3 5 13 -10 17 -10 21 0z m927 -17 c-7
-9 -15 -13 -17 -11 -7 7 7 26 19 26 6 0 6 -6 -2 -15z m-967 -10 c-3 -9 -8 -14
-10 -11 -3 3 -2 9 2 15 9 16 15 13 8 -4z m1063 -23 c-17 -16 -18 -16 -5 5 7
12 15 20 18 17 3 -2 -3 -12 -13 -22z m-926 -31 c0 -5 -10 -11 -22 -14 -22 -6
-22 -6 -4 8 23 17 26 18 26 6z m84 -12 c20 3 26 -1 26 -14 0 -8 9 -20 19 -27
21 -13 17 -38 -6 -38 -12 0 -13 3 -5 13 8 10 6 13 -8 14 -11 1 -17 -3 -14 -10
2 -7 -3 -21 -11 -32 -16 -19 -16 -19 -5 3 9 19 8 29 -7 50 -9 15 -16 30 -15
35 1 4 -5 7 -14 7 -9 0 -18 -9 -21 -21 -4 -16 -8 -18 -14 -7 -7 11 -11 10 -19
-2 -6 -10 -10 -11 -10 -3 0 17 83 54 91 41 3 -5 9 -9 13 -9z m709 0 c-3 -11
-15 -24 -26 -28 -14 -5 -17 -10 -8 -15 6 -4 18 -5 26 -2 8 3 17 0 21 -6 4 -7
3 -8 -4 -4 -7 4 -12 2 -12 -4 0 -7 -6 -8 -16 -2 -9 5 -25 7 -36 4 -27 -7 -13
22 18 36 13 7 24 18 24 27 0 8 4 15 9 15 5 0 7 -9 4 -21z m59 -1 c-7 -7 -12
-8 -12 -2 0 14 12 26 19 19 2 -3 -1 -11 -7 -17z m26 -33 c-3 -3 -9 2 -12 12
-6 14 -5 15 5 6 7 -7 10 -15 7 -18z m-815 -20 c4 -8 1 -17 -6 -21 -7 -4 -9 -4
-5 1 4 4 3 14 -3 22 -7 8 -8 13 -1 13 5 0 12 -7 15 -15z m374 -22 c-8 -7 -37
9 -31 19 3 5 12 4 20 -3 8 -6 13 -14 11 -16z m263 -17 c0 -8 -7 -16 -15 -20
-17 -6 -18 -4 -9 18 8 20 24 21 24 2z m-656 -21 c-19 -29 -20 -29 -30 -13 -5
7 -3 8 6 3 10 -6 12 -4 7 9 -4 9 -3 14 2 11 5 -3 12 -1 16 5 3 5 8 10 11 10 2
0 -3 -11 -12 -25z m732 -10 c-3 -8 0 -15 6 -15 6 0 9 -3 5 -6 -10 -11 -26 6
-20 21 3 8 7 15 10 15 3 0 3 -7 -1 -15z m38 -1 c3 -8 2 -12 -4 -9 -6 3 -10 10
-10 16 0 14 7 11 14 -7z m-580 -15 c-32 -13 -50 -9 -24 5 14 7 29 10 34 8 5
-3 1 -9 -10 -13z m-164 7 c0 -2 -8 -10 -17 -17 -16 -13 -17 -12 -4 4 13 16 21
21 21 13z m570 -16 c-6 -11 -15 -20 -20 -20 -6 0 -2 9 7 20 10 11 19 20 21 20
1 0 -2 -9 -8 -20z m16 -17 c-8 -15 -15 -25 -16 -21 0 12 23 58 27 54 3 -2 -2
-17 -11 -33z m-216 7 c0 -5 -2 -10 -4 -10 -3 0 -8 5 -11 10 -3 6 -1 10 4 10 6
0 11 -4 11 -10z m84 -16 c3 -8 2 -12 -4 -9 -6 3 -10 10 -10 16 0 14 7 11 14
-7z m44 -41 c0 -13 -5 -26 -11 -30 -6 -3 -7 -1 -3 5 4 6 2 20 -3 30 -7 14 -6
19 3 19 8 0 14 -11 14 -24z m27 17 c-3 -5 -1 -19 5 -30 6 -11 8 -20 6 -20 -10
0 -27 41 -21 50 3 6 8 10 11 10 3 0 2 -4 -1 -10z m-62 -36 c-7 -18 -19 -18
-26 0 -4 11 -1 13 11 9 15 -6 16 -5 2 13 -14 17 -14 18 2 6 9 -8 14 -20 11
-28z m-209 -25 c-3 -5 -10 -7 -15 -3 -5 3 -7 10 -3 15 3 5 10 7 15 3 5 -3 7
-10 3 -15z m191 -29 c3 -5 1 -10 -4 -10 -6 0 -11 5 -11 10 0 6 2 10 4 10 3 0
8 -4 11 -10z m-43 -63 c-7 -8 -9 -17 -5 -20 3 -4 1 -7 -5 -7 -15 0 -15 23 0
38 16 16 24 6 10 -11z m87 10 c8 -10 7 -14 -4 -14 -8 0 -15 6 -15 14 0 7 2 13
4 13 2 0 9 -6 15 -13z m-80 -70 c-15 -28 -24 -37 -16 -16 3 9 1 21 -4 26 -5 5
-1 9 11 10 18 2 19 -1 9 -20z m-335 -53 c4 -10 1 -14 -6 -12 -15 5 -23 28 -10
28 5 0 13 -7 16 -16z m-364 -468 c0 -2 -9 -6 -20 -9 -11 -3 -18 -1 -14 4 5 9
34 13 34 5z m64 -22 c3 -8 2 -13 -3 -10 -5 3 -19 -15 -30 -40 -12 -25 -25 -44
-28 -40 -8 7 17 66 28 66 14 0 11 28 -3 33 -7 3 -3 6 8 6 12 1 25 -6 28 -15z
m26 -10 c-2 -9 57 -44 73 -44 6 1 2 6 -11 13 -12 7 -19 17 -15 22 4 4 0 5 -9
2 -10 -4 -18 -2 -18 3 0 17 19 20 34 4 9 -8 20 -12 26 -9 5 3 10 -1 10 -9 0
-9 5 -16 11 -16 5 0 8 4 5 9 -3 5 1 11 9 15 8 3 17 1 20 -4 4 -6 0 -10 -7 -11
-10 0 -10 -2 0 -6 18 -7 15 -19 -9 -42 -17 -16 -26 -18 -41 -10 -10 5 -16 14
-13 20 4 5 2 9 -2 9 -5 0 -14 -9 -21 -20 -7 -12 -17 -18 -22 -15 -4 3 -15 -1
-22 -9 -12 -11 -17 -11 -37 5 -13 11 -19 19 -13 19 6 0 8 8 5 19 -3 11 4 25
19 37 14 11 23 25 22 32 -1 7 0 8 3 3 2 -6 4 -13 3 -17z m110 10 c0 -2 -9 -4
-21 -4 -11 0 -18 4 -14 10 5 8 35 3 35 -6z m-273 -24 c-2 -23 -10 -17 -12 10
-1 10 2 17 6 14 4 -2 7 -13 6 -24z m37 11 c3 -5 -1 -11 -9 -14 -9 -4 -12 -1
-8 9 6 16 10 17 17 5z m291 -32 c-6 -29 -15 -37 -15 -12 0 17 8 33 16 33 2 0
1 -10 -1 -21z m-269 -20 c-6 -19 -13 -24 -18 -17 -4 7 -3 17 2 24 6 6 8 13 5
16 -3 2 1 5 9 5 10 0 11 -6 2 -28z m297 16 c-3 -9 -8 -14 -10 -11 -3 3 -2 9 2
15 9 16 15 13 8 -4z m57 -9 c0 -3 -4 -8 -10 -11 -5 -3 -10 -1 -10 4 0 6 5 11
10 11 6 0 10 -2 10 -4z m-395 -16 c3 -5 1 -10 -4 -10 -6 0 -11 5 -11 10 0 6 2
10 4 10 3 0 8 -4 11 -10z m359 -11 c3 -3 -4 -5 -14 -6 -11 -1 -22 2 -24 6 -5
8 30 8 38 0z m-69 -9 c-3 -5 -16 -15 -28 -21 -19 -9 -19 -8 3 10 28 23 34 26
25 11z m-92 -19 c-3 -13 -10 -18 -20 -14 -14 5 -13 8 3 20 23 17 23 17 17 -6z
m121 1 c2 -4 -4 -8 -14 -8 -10 0 -16 4 -14 8 3 4 9 8 14 8 5 0 11 -4 14 -8z
m49 -10 c-3 -7 -9 -10 -12 -5 -3 4 -10 11 -15 15 -4 4 1 6 12 5 12 -1 18 -6
15 -15z m-153 -32 c-6 -11 -12 -20 -14 -20 -2 0 -2 9 1 20 3 11 9 20 15 20 5
0 4 -9 -2 -20z m65 10 c-3 -5 -12 -10 -18 -10 -7 0 -6 4 3 10 19 12 23 12 15
0z m932 -124 c-7 -14 -13 -23 -15 -21 -7 6 9 45 18 45 4 0 3 -11 -3 -24z m-37
-30 c0 -3 -4 -8 -10 -11 -5 -3 -10 -1 -10 4 0 6 5 11 10 11 6 0 10 -2 10 -4z
m54 -31 c-4 -8 -11 -15 -16 -15 -6 0 -5 6 2 15 7 8 14 15 16 15 2 0 1 -7 -2
-15z m46 -39 c0 -3 -4 -8 -10 -11 -5 -3 -10 -1 -10 4 0 6 5 11 10 11 6 0 10
-2 10 -4z m-100 -30 c0 -3 -4 -8 -10 -11 -5 -3 -10 -1 -10 4 0 6 5 11 10 11 6
0 10 -2 10 -4z m55 -25 c3 -5 1 -12 -5 -16 -5 -3 -10 1 -10 9 0 18 6 21 15 7z
m-105 -36 c-7 -8 -19 -15 -27 -15 -10 0 -8 6 8 19 27 22 38 19 19 -4z m120
-15 c0 -5 -7 -10 -15 -10 -8 0 -15 5 -15 10 0 6 7 10 15 10 8 0 15 -4 15 -10z
m-170 -20 c0 -5 -5 -10 -11 -10 -5 0 -7 5 -4 10 3 6 8 10 11 10 2 0 4 -4 4
-10z m95 0 c-3 -5 -10 -10 -16 -10 -5 0 -9 5 -9 10 0 6 7 10 16 10 8 0 12 -4
9 -10z m29 -30 c-58 -60 -68 -69 -73 -65 -2 3 3 13 12 23 8 9 27 30 42 46 14
15 29 25 32 22 4 -3 -2 -15 -13 -26z m24 -20 c-7 -11 -15 -15 -17 -9 -2 6 3
15 10 20 20 12 21 11 7 -11z m-47 -49 c-12 -10 -20 -23 -17 -31 7 -17 -10 -48
-20 -38 -10 11 3 52 28 83 14 19 23 24 26 15 3 -7 -5 -20 -17 -29z m36 -8 c-8
-10 -19 -30 -22 -45 -4 -16 -11 -28 -17 -28 -5 0 -6 -5 -3 -10 4 -6 11 -8 16
-5 10 7 12 -8 2 -18 -3 -4 -12 1 -19 11 -13 16 -13 16 -14 0 0 -10 -10 -23
-22 -29 -23 -12 -23 -12 -5 9 14 15 15 22 6 28 -7 4 -15 2 -17 -4 -2 -7 -8
-12 -13 -12 -5 0 -4 9 3 19 9 14 17 17 28 11 13 -7 22 -1 39 30 12 22 19 40
16 40 -3 0 -3 5 0 10 3 6 13 10 22 10 15 0 15 -2 0 -17z m-117 -19 c0 -8 -5
-12 -10 -9 -6 4 -8 11 -5 16 9 14 15 11 15 -7z m29 -180 c-9 -11 -15 -11 -25
-3 -19 15 -18 17 11 17 21 0 23 -3 14 -14z m-49 -24 c0 -5 -4 -10 -10 -10 -5
0 -10 5 -10 10 0 6 5 10 10 10 6 0 10 -4 10 -10z m10 -60 c0 -5 -5 -10 -11
-10 -5 0 -7 5 -4 10 3 6 8 10 11 10 2 0 4 -4 4 -10z"/>
<path d="M5851 8444 l-24 -25 26 12 c14 6 28 18 31 25 8 22 -7 16 -33 -12z"/>
<path d="M5978 8443 c7 -3 16 -2 19 1 4 3 -2 6 -13 5 -11 0 -14 -3 -6 -6z"/>
<path d="M5300 8339 c0 -5 5 -7 10 -4 6 3 10 8 10 11 0 2 -4 4 -10 4 -5 0 -10
-5 -10 -11z"/>
<path d="M5465 8330 c-3 -5 -1 -10 4 -10 6 0 11 5 11 10 0 6 -2 10 -4 10 -3 0
-8 -4 -11 -10z"/>
<path d="M5310 8306 c0 -8 4 -17 9 -20 5 -4 7 3 4 14 -6 23 -13 26 -13 6z"/>
<path d="M5257 8285 c-6 -15 10 -32 20 -21 4 3 1 6 -5 6 -6 0 -9 7 -6 15 4 8
4 15 1 15 -3 0 -7 -7 -10 -15z"/>
<path d="M5232 8240 c-13 -22 -9 -40 10 -40 6 0 5 7 -3 17 -12 15 -12 16 2 11
13 -5 16 -2 12 13 -6 23 -5 23 -21 -1z"/>
<path d="M5275 8230 c-3 -5 -2 -10 4 -10 5 0 13 5 16 10 3 6 2 10 -4 10 -5 0
-13 -4 -16 -10z"/>
<path d="M5346 8217 c3 -10 9 -15 12 -12 3 3 0 11 -7 18 -10 9 -11 8 -5 -6z"/>
<path d="M5439 8177 c11 -19 21 -45 23 -58 2 -13 6 -19 10 -14 7 11 -26 90
-42 100 -6 4 -2 -9 9 -28z"/>
<path d="M5255 8189 c-4 -6 -5 -12 -2 -15 2 -3 7 2 10 11 7 17 1 20 -8 4z"/>
<path d="M6390 8170 c0 -5 5 -10 11 -10 5 0 7 5 4 10 -3 6 -8 10 -11 10 -2 0
-4 -4 -4 -10z"/>
<path d="M5395 8161 c-3 -5 -1 -12 5 -16 5 -3 10 1 10 9 0 18 -6 21 -15 7z"/>
<path d="M5320 8141 c0 -10 30 -24 37 -17 3 2 -5 9 -16 16 -12 6 -21 7 -21 1z"/>
<path d="M6468 8133 c7 -3 16 -2 19 1 4 3 -2 6 -13 5 -11 0 -14 -3 -6 -6z"/>
<path d="M5282 8104 c-7 -8 -8 -14 -3 -14 10 0 25 19 20 25 -2 1 -10 -3 -17
-11z"/>
<path d="M5370 8110 c0 -6 -6 -8 -12 -4 -7 4 -10 4 -6 0 3 -4 10 -8 15 -8 4 0
14 -4 21 -10 17 -15 15 0 -3 18 -9 9 -15 11 -15 4z"/>
<path d="M5600 8096 c0 -2 8 -10 18 -17 15 -13 16 -12 3 4 -13 16 -21 21 -21
13z"/>
<path d="M5521 8074 c0 -11 3 -14 6 -6 3 7 2 16 -1 19 -3 4 -6 -2 -5 -13z"/>
<path d="M5577 8043 c-2 -4 5 -17 16 -28 l20 -20 -13 25 c-16 32 -17 33 -23
23z"/>
<path d="M5624 8043 c4 -8 2 -13 -5 -13 -21 0 -3 -11 27 -16 16 -3 26 -4 24
-2 -3 2 -16 12 -29 23 -14 11 -21 14 -17 8z"/>
<path d="M5658 8038 c5 -5 16 -8 23 -6 8 3 3 7 -10 11 -17 4 -21 3 -13 -5z"/>
<path d="M5250 8030 c0 -5 5 -10 11 -10 5 0 7 5 4 10 -3 6 -8 10 -11 10 -2 0
-4 -4 -4 -10z"/>
<path d="M5242 7998 c6 -18 25 -21 25 -3 0 8 -7 15 -14 15 -8 0 -13 -5 -11
-12z"/>
<path d="M6500 8000 c8 -5 20 -10 25 -10 6 0 3 5 -5 10 -8 5 -19 10 -25 10 -5
0 -3 -5 5 -10z"/>
<path d="M5725 7980 c10 -11 20 -18 23 -15 7 6 -18 35 -31 35 -5 0 -2 -9 8
-20z"/>
<path d="M6336 7954 c-8 -20 -8 -24 2 -24 4 0 8 9 9 20 2 24 -3 26 -11 4z"/>
<path d="M5376 7951 c-3 -4 0 -16 7 -25 11 -14 12 -13 12 9 0 25 -9 33 -19 16z"/>
<path d="M5408 7933 c7 -3 16 -2 19 1 4 3 -2 6 -13 5 -11 0 -14 -3 -6 -6z"/>
<path d="M6430 7919 c0 -5 5 -7 10 -4 6 3 10 8 10 11 0 2 -4 4 -10 4 -5 0 -10
-5 -10 -11z"/>
<path d="M5693 7901 c1 -11 6 -17 14 -14 10 4 11 9 2 19 -15 19 -18 18 -16 -5z"/>
<path d="M6403 7905 c0 -8 4 -12 9 -9 5 3 6 10 3 15 -9 13 -12 11 -12 -6z"/>
<path d="M6344 7850 c0 -13 4 -16 10 -10 7 7 7 13 0 20 -6 6 -10 3 -10 -10z"/>
<path d="M5275 7850 c3 -5 8 -10 11 -10 2 0 4 5 4 10 0 6 -5 10 -11 10 -5 0
-7 -4 -4 -10z"/>
<path d="M5750 7850 c0 -5 7 -10 16 -10 8 0 12 5 9 10 -3 6 -10 10 -16 10 -5
0 -9 -4 -9 -10z"/>
<path d="M6296 7843 c-6 -14 -5 -15 5 -6 7 7 10 15 7 18 -3 3 -9 -2 -12 -12z"/>
<path d="M6376 7844 c-8 -21 -8 -24 5 -24 5 0 8 4 5 9 -4 5 -1 11 6 13 8 3 9
6 1 11 -6 4 -14 0 -17 -9z"/>
<path d="M5405 7841 c-3 -5 -2 -12 3 -15 5 -3 9 1 9 9 0 17 -3 19 -12 6z"/>
<path d="M5340 7830 c0 -5 5 -10 11 -10 5 0 7 5 4 10 -3 6 -8 10 -11 10 -2 0
-4 -4 -4 -10z"/>
<path d="M5850 7820 c8 -5 22 -9 30 -9 10 0 8 3 -5 9 -27 12 -43 12 -25 0z"/>
<path d="M6360 7800 c-8 -5 -10 -10 -5 -10 6 0 17 5 25 10 8 5 11 10 5 10 -5
0 -17 -5 -25 -10z"/>
<path d="M6400 7789 c0 -5 5 -7 10 -4 6 3 10 8 10 11 0 2 -4 4 -10 4 -5 0 -10
-5 -10 -11z"/>
<path d="M5300 7770 c0 -5 5 -10 11 -10 5 0 7 5 4 10 -3 6 -8 10 -11 10 -2 0
-4 -4 -4 -10z"/>
<path d="M5342 7764 c10 -10 20 -15 24 -12 3 4 -5 12 -18 18 -22 12 -22 12 -6
-6z"/>
<path d="M5381 7764 c0 -11 3 -14 6 -6 3 7 2 16 -1 19 -3 4 -6 -2 -5 -13z"/>
<path d="M6370 7776 c0 -2 7 -9 15 -16 9 -7 15 -8 15 -2 0 5 -7 12 -15 16 -8
3 -15 4 -15 2z"/>
<path d="M6280 7766 c0 -3 9 -10 20 -16 11 -6 20 -8 20 -6 0 3 -9 10 -20 16
-11 6 -20 8 -20 6z"/>
<path d="M5311 7743 c0 -4 4 -17 9 -28 8 -19 9 -19 9 2 1 12 -3 25 -9 28 -5 3
-10 3 -9 -2z"/>
<path d="M5396 7735 c-9 -26 -7 -32 5 -12 6 10 9 21 6 23 -2 3 -7 -2 -11 -11z"/>
<path d="M5423 7720 c2 -8 0 -25 -4 -37 -5 -13 -5 -23 0 -23 13 0 19 47 9 62
-8 10 -9 10 -5 -2z"/>
<path d="M6330 7726 c0 -2 8 -10 18 -17 15 -13 16 -12 3 4 -13 16 -21 21 -21
13z"/>
<path d="M5340 7706 c0 -2 7 -7 16 -10 8 -3 12 -2 9 4 -6 10 -25 14 -25 6z"/>
<path d="M5391 7684 c0 -11 3 -14 6 -6 3 7 2 16 -1 19 -3 4 -6 -2 -5 -13z"/>
<path d="M5330 7681 c0 -6 5 -13 10 -16 6 -3 10 1 10 9 0 9 -4 16 -10 16 -5 0
-10 -4 -10 -9z"/>
<path d="M5365 7660 c3 -5 8 -10 11 -10 2 0 4 5 4 10 0 6 -5 10 -11 10 -5 0
-7 -4 -4 -10z"/>
<path d="M5570 7640 c-23 -7 -23 -8 -3 -9 12 -1 25 4 28 9 3 6 5 10 3 9 -2 -1
-14 -5 -28 -9z"/>
<path d="M6347 7620 c8 -33 13 -38 13 -14 0 11 4 24 10 30 6 6 3 10 -10 10
-16 0 -18 -5 -13 -26z"/>
<path d="M6297 7619 c7 -7 15 -10 18 -7 3 3 -2 9 -12 12 -14 6 -15 5 -6 -5z"/>
<path d="M5590 7483 c0 -6 8 -17 18 -24 16 -13 16 -13 2 6 -8 11 -16 22 -17
24 -2 2 -3 0 -3 -6z"/>
<path d="M5725 7430 c10 -11 20 -20 23 -20 3 0 -3 9 -13 20 -10 11 -20 20 -23
20 -3 0 3 -9 13 -20z"/>
<path d="M6345 7440 c3 -5 8 -10 11 -10 2 0 4 5 4 10 0 6 -5 10 -11 10 -5 0
-7 -4 -4 -10z"/>
<path d="M6330 7411 c0 -6 4 -13 10 -16 6 -3 7 1 4 9 -7 18 -14 21 -14 7z"/>
<path d="M6365 7410 c4 -6 3 -16 -3 -23 -5 -8 -4 -21 5 -37 14 -25 14 -25 8 8
-4 20 -3 32 4 32 6 0 8 7 5 15 -4 8 -10 15 -16 15 -5 0 -6 -5 -3 -10z"/>
<path d="M6320 7221 c0 -5 7 -12 16 -15 14 -5 15 -4 4 9 -14 17 -20 19 -20 6z"/>
<path d="M6365 7171 c-3 -5 -2 -12 3 -15 5 -3 9 1 9 9 0 17 -3 19 -12 6z"/>
<path d="M5510 7995 c0 -7 39 -45 45 -45 3 0 -2 11 -11 25 -14 22 -34 34 -34
20z"/>
<path d="M6520 6680 c0 -5 5 -10 11 -10 5 0 7 5 4 10 -3 6 -8 10 -11 10 -2 0
-4 -4 -4 -10z"/>
<path d="M6545 6641 c-3 -5 -1 -12 5 -16 5 -3 10 1 10 9 0 18 -6 21 -15 7z"/>
<path d="M5270 6579 c0 -5 5 -7 10 -4 6 3 10 8 10 11 0 2 -4 4 -10 4 -5 0 -10
-5 -10 -11z"/>
<path d="M6570 6529 c0 -11 4 -18 10 -14 5 3 7 12 3 20 -7 21 -13 19 -13 -6z"/>
<path d="M5240 6491 c0 -12 31 -43 37 -37 7 7 -16 46 -27 46 -6 0 -10 -4 -10
-9z"/>
<path d="M5560 6490 c8 -5 20 -10 25 -10 6 0 3 5 -5 10 -8 5 -19 10 -25 10 -5
0 -3 -5 5 -10z"/>
<path d="M5238 6433 c7 -3 16 -2 19 1 4 3 -2 6 -13 5 -11 0 -14 -3 -6 -6z"/>
<path d="M6586 6428 c3 -4 9 -8 15 -8 5 0 9 4 9 8 0 5 -7 9 -15 9 -8 0 -12 -4
-9 -9z"/>
<path d="M5275 6419 c-4 -5 -11 -7 -16 -4 -15 10 -10 -2 8 -16 9 -8 14 -9 10
-2 -5 7 1 13 15 15 19 3 20 4 6 10 -10 4 -20 3 -23 -3z"/>
<path d="M5360 6387 c0 -9 4 -17 10 -17 5 0 7 -7 4 -15 -4 -8 -4 -15 -1 -15
13 0 13 28 1 45 -12 17 -14 17 -14 2z"/>
<path d="M5896 6385 c4 -8 11 -15 16 -15 6 0 5 6 -2 15 -7 8 -14 15 -16 15 -2
0 -1 -7 2 -15z"/>
<path d="M5825 6380 c3 -5 8 -10 11 -10 2 0 4 5 4 10 0 6 -5 10 -11 10 -5 0
-7 -4 -4 -10z"/>
<path d="M5947 6383 c-12 -12 -7 -22 16 -33 21 -10 21 -10 3 4 -10 8 -15 19
-11 25 7 12 2 15 -8 4z"/>
<path d="M5270 6376 c0 -2 7 -9 15 -16 9 -7 15 -8 15 -2 0 5 -7 12 -15 16 -8
3 -15 4 -15 2z"/>
<path d="M5256 6345 c9 -14 19 -24 21 -21 6 6 -20 46 -30 46 -4 0 0 -11 9 -25z"/>
<path d="M5845 6360 c-3 -5 -1 -10 4 -10 6 0 11 5 11 10 0 6 -2 10 -4 10 -3 0
-8 -4 -11 -10z"/>
<path d="M5880 6363 c0 -7 9 -17 19 -23 25 -13 28 -13 28 4 0 8 -6 12 -15 9
-8 -3 -18 0 -23 8 -6 9 -9 10 -9 2z"/>
<path d="M5950 6311 c-7 -14 -7 -22 2 -27 7 -4 8 -3 4 4 -4 7 -2 12 4 12 6 0
13 -7 16 -15 4 -8 11 -15 17 -15 6 0 1 10 -11 23 -12 13 -19 27 -15 30 3 4 3
7 0 7 -3 0 -11 -9 -17 -19z"/>
<path d="M5881 6318 c2 -2 20 -16 39 -33 19 -16 27 -21 17 -9 -9 11 -14 24
-10 29 5 4 3 5 -4 1 -6 -3 -14 -2 -18 4 -3 5 -11 10 -17 10 -6 0 -9 -1 -7 -2z"/>
<path d="M5245 6299 c-4 -6 -5 -12 -2 -15 2 -3 7 2 10 11 7 17 1 20 -8 4z"/>
<path d="M5286 6285 c4 -8 10 -12 15 -9 11 6 2 24 -11 24 -5 0 -7 -7 -4 -15z"/>
<path d="M5870 6296 c0 -2 7 -7 16 -10 8 -3 12 -2 9 4 -6 10 -25 14 -25 6z"/>
<path d="M5470 6265 c7 -8 17 -15 22 -15 5 0 3 7 -6 15 -8 8 -18 15 -22 15 -3
0 -1 -7 6 -15z"/>
<path d="M5515 6270 c3 -5 8 -10 11 -10 2 0 4 5 4 10 0 6 -5 10 -11 10 -5 0
-7 -4 -4 -10z"/>
<path d="M5960 6266 c0 -2 8 -10 18 -17 15 -13 16 -12 3 4 -13 16 -21 21 -21
13z"/>
<path d="M6461 6254 c0 -11 3 -14 6 -6 3 7 2 16 -1 19 -3 4 -6 -2 -5 -13z"/>
<path d="M5326 6251 c-4 -5 -2 -12 3 -15 5 -4 12 -2 15 3 4 5 2 12 -3 15 -5 4
-12 2 -15 -3z"/>
<path d="M5950 6246 c0 -4 7 -14 15 -22 8 -9 15 -11 15 -6 0 5 -7 15 -15 22
-8 7 -15 9 -15 6z"/>
<path d="M6125 6240 c3 -5 11 -10 16 -10 6 0 7 5 4 10 -3 6 -11 10 -16 10 -6
0 -7 -4 -4 -10z"/>
<path d="M6180 6236 c0 -2 7 -7 16 -10 8 -3 12 -2 9 4 -6 10 -25 14 -25 6z"/>
<path d="M6280 6180 c0 -6 7 -10 15 -10 8 0 15 2 15 4 0 2 -7 6 -15 10 -8 3
-15 1 -15 -4z"/>
<path d="M5560 6159 c0 -5 5 -7 10 -4 6 3 10 8 10 11 0 2 -4 4 -10 4 -5 0 -10
-5 -10 -11z"/>
<path d="M5953 6145 c0 -8 4 -12 9 -9 5 3 6 10 3 15 -9 13 -12 11 -12 -6z"/>
<path d="M6060 6096 c0 -2 7 -7 16 -10 8 -3 12 -2 9 4 -6 10 -25 14 -25 6z"/>
<path d="M6065 6059 c-11 -16 -1 -19 13 -3 7 8 8 14 3 14 -5 0 -13 -5 -16 -11z"/>
<path d="M6060 6026 c0 -2 7 -9 15 -16 13 -11 14 -10 9 4 -5 14 -24 23 -24 12z"/>
<path d="M6050 6001 c0 -6 4 -13 10 -16 6 -3 7 1 4 9 -7 18 -14 21 -14 7z"/>
<path d="M5710 5970 c0 -5 5 -10 11 -10 5 0 7 5 4 10 -3 6 -8 10 -11 10 -2 0
-4 -4 -4 -10z"/>
<path d="M6000 5970 c-9 -6 -10 -10 -3 -10 6 0 15 5 18 10 8 12 4 12 -15 0z"/>
<path d="M6174 5930 c1 -29 10 -38 20 -22 7 11 -4 52 -14 52 -4 0 -7 -13 -6
-30z"/>
<path d="M6025 5920 c10 -11 20 -20 23 -20 3 0 -3 9 -13 20 -10 11 -20 20 -23
20 -3 0 3 -9 13 -20z"/>
<path d="M6157 5933 c-4 -3 -7 -11 -7 -17 0 -6 5 -5 12 2 6 6 9 14 7 17 -3 3
-9 2 -12 -2z"/>
<path d="M5835 5919 c-4 -6 -5 -12 -2 -15 2 -3 7 2 10 11 7 17 1 20 -8 4z"/>
<path d="M6396 5881 c-4 -7 -5 -15 -2 -18 9 -9 19 4 14 18 -4 11 -6 11 -12 0z"/>
<path d="M5910 5876 c0 -2 8 -10 18 -17 15 -13 16 -12 3 4 -13 16 -21 21 -21
13z"/>
<path d="M6065 5870 c3 -5 8 -10 11 -10 2 0 4 5 4 10 0 6 -5 10 -11 10 -5 0
-7 -4 -4 -10z"/>
<path d="M6150 5836 c0 -14 4 -27 9 -30 5 -4 7 3 4 14 -3 11 0 20 6 20 6 0 11
-4 11 -10 0 -5 5 -10 11 -10 14 0 2 18 -22 30 -16 9 -19 7 -19 -14z"/>
<path d="M5477 5844 c-7 -7 2 -34 12 -34 4 0 7 9 7 20 0 20 -7 25 -19 14z"/>
<path d="M5890 5829 c0 -5 5 -7 10 -4 6 3 10 8 10 11 0 2 -4 4 -10 4 -5 0 -10
-5 -10 -11z"/>
<path d="M6230 5829 c0 -5 5 -7 10 -4 6 3 10 8 10 11 0 2 -4 4 -10 4 -5 0 -10
-5 -10 -11z"/>
<path d="M5959 5817 c6 -8 8 -17 4 -20 -3 -4 -1 -7 5 -7 14 0 14 2 6 24 -3 9
-11 16 -16 16 -7 0 -6 -5 1 -13z"/>
<path d="M5530 5810 c0 -5 5 -10 11 -10 5 0 7 5 4 10 -3 6 -8 10 -11 10 -2 0
-4 -4 -4 -10z"/>
<path d="M5835 5800 c-16 -7 -17 -9 -3 -9 9 -1 20 4 23 9 7 11 7 11 -20 0z"/>
<path d="M5888 5803 c7 -3 16 -2 19 1 4 3 -2 6 -13 5 -11 0 -14 -3 -6 -6z"/>
<path d="M6080 5806 c0 -2 8 -10 18 -17 15 -13 16 -12 3 4 -13 16 -21 21 -21
13z"/>
<path d="M6186 5801 c-4 -6 -2 -11 4 -11 6 0 8 -4 5 -10 -3 -5 -1 -10 4 -10
13 0 14 10 2 29 -6 9 -11 10 -15 2z"/>
<path d="M6385 5780 c-10 -11 -13 -20 -7 -20 7 0 12 5 12 11 0 5 4 8 8 5 5 -3
9 1 9 9 0 19 0 19 -22 -5z"/>
<path d="M6236 5774 c-10 -25 -7 -30 14 -30 11 0 20 4 20 8 0 4 -5 8 -11 8 -5
0 -8 4 -4 9 3 5 1 12 -4 15 -5 3 -12 -1 -15 -10z"/>
<path d="M5890 5750 c-9 -6 -10 -10 -3 -10 6 0 15 5 18 10 8 12 4 12 -15 0z"/>
<path d="M6328 5734 c2 -13 9 -24 14 -24 6 0 8 7 4 15 -4 10 1 15 16 15 28 0
16 12 -15 15 -20 2 -23 -1 -19 -21z"/>
<path d="M6410 5751 c0 -17 18 -21 24 -6 3 9 0 15 -9 15 -8 0 -15 -4 -15 -9z"/>
<path d="M6295 5720 c-15 -16 -16 -22 -5 -35 11 -13 10 -19 -5 -35 -10 -11
-16 -23 -13 -25 3 -3 17 8 32 25 14 17 26 27 26 21 0 -6 4 -11 9 -11 5 0 7 9
4 21 -3 11 -11 18 -18 15 -19 -7 -27 5 -13 21 18 22 3 25 -17 3z"/>
<path d="M6445 5730 c3 -5 1 -19 -5 -30 -7 -13 -7 -20 -1 -20 14 0 29 32 24
48 -3 6 -9 12 -14 12 -6 0 -7 -4 -4 -10z"/>
<path d="M6361 5711 c-11 -20 -11 -26 5 -40 17 -15 17 -15 6 1 -10 12 -10 17
-1 20 6 2 9 13 7 23 -4 19 -5 18 -17 -4z"/>
<path d="M6236 5705 c-11 -8 -18 -17 -15 -19 2 -2 15 4 28 15 27 22 15 26 -13
4z"/>
<path d="M5861 5701 c-10 -6 -9 -10 4 -15 13 -5 15 -9 6 -20 -12 -15 -5 -46
11 -46 6 0 7 11 4 26 -5 17 -3 23 4 19 5 -3 10 -1 10 4 0 6 -5 11 -11 11 -5 0
-8 4 -4 9 8 13 -8 21 -24 12z"/>
<path d="M5695 5690 c-3 -5 1 -10 10 -10 9 0 13 5 10 10 -3 6 -8 10 -10 10 -2
0 -7 -4 -10 -10z"/>
<path d="M6149 5673 c-13 -16 -12 -17 4 -4 16 13 21 21 13 21 -2 0 -10 -8 -17
-17z"/>
<path d="M6260 5680 c8 -5 20 -10 25 -10 6 0 3 5 -5 10 -8 5 -19 10 -25 10 -5
0 -3 -5 5 -10z"/>
<path d="M5430 5670 c0 -5 5 -10 10 -10 6 0 10 5 10 10 0 6 -4 10 -10 10 -5 0
-10 -4 -10 -10z"/>
<path d="M6175 5670 c-3 -5 -1 -10 4 -10 6 0 11 5 11 10 0 6 -2 10 -4 10 -3 0
-8 -4 -11 -10z"/>
<path d="M5916 5655 c-9 -26 -7 -32 5 -12 6 10 9 21 6 23 -2 3 -7 -2 -11 -11z"/>
<path d="M6210 5649 c0 -5 5 -7 10 -4 6 3 10 8 10 11 0 2 -4 4 -10 4 -5 0 -10
-5 -10 -11z"/>
<path d="M6086 5631 c-4 -7 -5 -15 -2 -18 9 -9 19 4 14 18 -4 11 -6 11 -12 0z"/>
<path d="M6280 5604 c-25 -26 -29 -33 -12 -25 12 7 22 15 22 19 0 4 12 15 28
24 15 10 20 17 12 17 -8 0 -31 -16 -50 -35z"/>
<path d="M6196 5615 c4 -8 8 -15 10 -15 2 0 4 7 4 15 0 8 -4 15 -10 15 -5 0
-7 -7 -4 -15z"/>
<path d="M6211 5584 c-25 -42 -23 -65 2 -40 9 10 15 22 12 27 -3 5 -1 18 5 29
19 35 3 22 -19 -16z"/>
<path d="M5930 5590 c0 -5 5 -10 11 -10 5 0 7 5 4 10 -3 6 -8 10 -11 10 -2 0
-4 -4 -4 -10z"/>
<path d="M5530 5570 c-9 -6 -10 -10 -3 -10 6 0 15 5 18 10 8 12 4 12 -15 0z"/>
<path d="M6145 5550 c3 -5 8 -10 11 -10 2 0 4 5 4 10 0 6 -5 10 -11 10 -5 0
-7 -4 -4 -10z"/>
<path d="M6249 5558 c-6 -25 -6 -38 1 -38 12 0 20 29 10 35 -6 4 -10 5 -11 3z"/>
<path d="M5655 5530 c-9 -15 3 -29 25 -27 11 1 20 2 20 2 0 9 -41 31 -45 25z"/>
<path d="M5886 5525 c-8 -22 -8 -22 7 -28 9 -3 13 2 12 14 -2 26 -11 33 -19
14z"/>
<path d="M5955 5530 c3 -5 8 -10 11 -10 2 0 4 5 4 10 0 6 -5 10 -11 10 -5 0
-7 -4 -4 -10z"/>
<path d="M5915 5520 c-3 -6 1 -13 10 -16 21 -9 26 -2 10 13 -9 8 -16 9 -20 3z"/>
<path d="M5976 5512 c-3 -6 3 -12 15 -15 12 -3 19 -1 16 6 -5 15 -24 20 -31 9z"/>
<path d="M6200 5510 c-8 -5 -10 -10 -5 -10 6 0 17 5 25 10 8 5 11 10 5 10 -5
0 -17 -5 -25 -10z"/>
<path d="M6160 5499 c0 -5 5 -7 10 -4 6 3 10 8 10 11 0 2 -4 4 -10 4 -5 0 -10
-5 -10 -11z"/>
<path d="M6235 5497 c-24 -13 -58 -48 -52 -53 3 -3 11 1 19 9 8 8 28 22 46 31
18 9 32 18 32 20 0 6 -29 2 -45 -7z"/>
<path d="M6112 5491 c-11 -7 -11 -9 2 -14 10 -4 16 -1 16 8 0 17 -1 17 -18 6z"/>
<path d="M6066 5465 c-11 -8 -15 -15 -9 -15 6 0 16 7 23 15 16 19 11 19 -14 0z"/>
<path d="M6144 5455 c-10 -8 -14 -15 -8 -15 6 0 17 7 24 15 16 19 9 19 -16 0z"/>
<path d="M6110 5422 c0 -5 9 -17 21 -28 21 -19 21 -19 8 9 -12 26 -29 37 -29
19z"/>
<path d="M6110 5372 c0 -15 4 -20 16 -15 9 3 12 9 7 12 -4 3 -11 10 -15 15 -5
5 -8 0 -8 -12z"/>
<path d="M5840 5360 c6 -11 16 -20 22 -20 6 0 3 9 -7 20 -10 11 -20 20 -22 20
-2 0 1 -9 7 -20z"/>
<path d="M5947 5256 c-4 -10 -1 -13 9 -9 7 3 14 9 14 14 0 14 -17 10 -23 -5z"/>
<path d="M5416 6167 c3 -10 9 -15 12 -12 3 3 0 11 -7 18 -10 9 -11 8 -5 -6z"/>
<path d="M6314 5870 c0 -13 4 -16 10 -10 7 7 7 13 0 20 -6 6 -10 3 -10 -10z"/>
<path d="M6372 5548 c6 -18 28 -21 28 -4 0 9 -7 16 -16 16 -9 0 -14 -5 -12
-12z"/>
<path d="M5383 5475 c0 -8 4 -12 9 -9 4 3 8 9 8 15 0 5 -4 9 -8 9 -5 0 -9 -7
-9 -15z"/>
<path d="M5430 5460 c-9 -6 -10 -10 -3 -10 6 0 15 5 18 10 8 12 4 12 -15 0z"/>
<path d="M5590 5480 c-12 -7 -12 -10 3 -16 21 -8 29 -3 19 13 -5 8 -13 9 -22
3z"/>
<path d="M5359 4478 c-12 -23 -12 -23 10 -4 19 18 21 18 21 2 0 -10 -9 -20
-20 -23 -11 -3 -17 -10 -14 -15 3 -5 14 -2 24 7 11 10 24 14 32 9 9 -5 8 0 -3
16 -22 33 -36 35 -50 8z"/>
<path d="M5480 4469 c-18 -8 -21 -12 -11 -18 8 -6 21 -3 32 7 29 25 23 28 -21
11z"/>
</g>
</svg>
